<svg width="15" height="15" viewBox="0 0 15 15" fill="none" xmlns="http://www.w3.org/2000/svg">
<path fill-rule="evenodd" clip-rule="evenodd" d="M1 7.5C1 3.9159 3.91567 1 7.49987 1C11.0841 1 14 3.9159 14 7.5C14 11.0841 11.0841 14 7.49987 14C3.91567 14 1 11.0841 1 7.5ZM1.85247 7.5C1.85247 10.614 4.38585 13.1475 7.49987 13.1475C10.6139 13.1475 13.1475 10.614 13.1474 7.5C13.1474 4.38598 10.6139 1.85251 7.49987 1.85251C4.38582 1.85251 1.85247 4.38595 1.85247 7.5Z" fill="#53B43B"/>
<path fill-rule="evenodd" clip-rule="evenodd" d="M0.75 7.5C0.75 3.77784 3.77759 0.75 7.49987 0.75C11.2221 0.75 14.25 3.77782 14.25 7.5C14.25 11.2222 11.2221 14.25 7.49987 14.25C3.77759 14.25 0.75 11.2222 0.75 7.5ZM7.49987 1.25C4.05375 1.25 1.25 4.05396 1.25 7.5C1.25 10.946 4.05375 13.75 7.49987 13.75C10.946 13.75 13.75 10.946 13.75 7.5C13.75 4.05398 10.946 1.25 7.49987 1.25ZM7.49987 2.10251C4.52389 2.10251 2.10247 4.52401 2.10247 7.5C2.10247 10.476 4.52393 12.8975 7.49987 12.8975C10.4758 12.8975 12.8975 10.4759 12.8974 7.5C12.8974 4.52405 10.4759 2.10251 7.49987 2.10251ZM1.60247 7.5C1.60247 4.24788 4.24774 1.60251 7.49987 1.60251C10.752 1.60251 13.3974 4.24791 13.3974 7.5C13.3975 10.7521 10.752 13.3975 7.49987 13.3975C4.24777 13.3975 1.60247 10.7521 1.60247 7.5Z" fill="#53B43B"/>
<path d="M9.29151 5.13861L6.02781 8.85799L4.70852 7.35474C4.54639 7.17019 4.28376 7.17008 4.12164 7.35485C3.95945 7.53969 3.95945 7.83904 4.12164 8.02381L5.73442 9.86158C5.81547 9.95384 5.92164 10 6.02781 10C6.13399 10 6.24044 9.95384 6.32146 9.86143C6.32171 9.86104 6.3219 9.86064 6.32231 9.86017L9.87836 5.80746C10.0405 5.6228 10.0405 5.32323 9.87836 5.13857C9.71627 4.9538 9.45345 4.9538 9.29151 5.13861Z" fill="#53B43B"/>
<path fill-rule="evenodd" clip-rule="evenodd" d="M9.10349 4.97385C9.36505 4.67534 9.80467 4.67548 10.0663 4.9737C10.0663 4.97374 10.0663 4.97367 10.0663 4.9737C10.3112 5.25271 10.3112 5.69335 10.0663 5.97235L6.52262 10.0109L6.5322 9.99592C6.5275 10.0032 6.52032 10.0135 6.51045 10.0248L6.52262 10.0109L6.52198 10.0119L6.50944 10.0262C6.38267 10.1708 6.20856 10.25 6.02781 10.25C5.84691 10.25 5.67322 10.1707 5.5466 10.0266L3.93376 8.18874C3.68873 7.9096 3.68878 7.46913 3.93372 7.18997C4.19548 6.89165 4.63471 6.89192 4.89634 7.18975L6.0278 8.47897L5.8399 8.6931L6.02781 8.85799L6.21571 8.69309L6.0278 8.47897L9.10349 4.97385ZM9.69043 5.30344C9.62787 5.23213 9.54184 5.23227 9.47954 5.30337L6.02783 9.23701L4.5207 7.51974C4.45809 7.44855 4.37202 7.44855 4.30956 7.51974C4.23013 7.61026 4.23017 7.76849 4.30952 7.85889L5.92224 9.69658C5.95771 9.73696 5.99638 9.75 6.02781 9.75C6.05825 9.75 6.09536 9.73779 6.12955 9.70097C6.13109 9.69911 6.13271 9.69721 6.1344 9.69528L9.69044 5.64257C9.76975 5.55228 9.76973 5.39373 9.69043 5.30344ZM6.10719 9.73265L6.1079 9.73146C6.1071 9.73278 6.107 9.73295 6.10719 9.73265Z" fill="#53B43B"/>
</svg>
